<svg xmlns="http://www.w3.org/2000/svg" viewBox="0 0 577.15 101.43"><path fill="#f79413" d="M873.08,771.93V836.5H858.31V771.93h-21v-12h56.72v12Z" transform="translate(-774.29 -748.9)"/><path fill="#f79413" d="M957.51,833.51a58.47,58.47,0,0,1-9.87,3,48.53,48.53,0,0,1-9.93,1,40.76,40.76,0,0,1-14.62-2.43,27.52,27.52,0,0,1-10.72-7.24A31.65,31.65,0,0,1,905.75,816a61.58,61.58,0,0,1,.21-33.75,35.76,35.76,0,0,1,7-12.71,30,30,0,0,1,11.1-7.91,37.8,37.8,0,0,1,14.68-2.72q2.64,0,5,.12t4.54.44q2.23.32,4.51.85t4.75,1.35v14.3a45.56,45.56,0,0,0-9.49-3.34,38.36,38.36,0,0,0-8.2-1,20.38,20.38,0,0,0-9.32,2,17.13,17.13,0,0,0-6.36,5.51,24.41,24.41,0,0,0-3.66,8.44,46.13,46.13,0,0,0-1.17,10.75,46.69,46.69,0,0,0,1.2,11.1,22.91,22.91,0,0,0,3.72,8.29,16.27,16.27,0,0,0,6.45,5.19,22.32,22.32,0,0,0,9.32,1.79,25.17,25.17,0,0,0,4.19-.38q2.26-.38,4.57-1a47.89,47.89,0,0,0,4.57-1.46q2.26-.85,4.19-1.73Z" transform="translate(-774.29 -748.9)"/><path fill="#353030" d="M1073.12,836.5H1054l-23.38-76.58H1047L1059.93,806l4.16,15.12,4.34-16,12.83-45.23h15.35Z" transform="translate(-774.29 -748.9)"/><path fill="#353030" d="M1146.42,836.5l-4.22-15.12h-26.72l-4.34,15.12h-14.3l22.68-76.58h20.16l22.68,76.58ZM1129,774l-10.08,35.63h20Z" transform="translate(-774.29 -748.9)"/><path fill="#353030" d="M1174.13,836.5V759.92h14.65v64.22h32.34V836.5Z" transform="translate(-774.29 -748.9)"/><path fill="#353030" d="M1289.45,808.32a38.45,38.45,0,0,1-2,12.86,24.52,24.52,0,0,1-5.62,9.23,23.44,23.44,0,0,1-8.94,5.57,35.17,35.17,0,0,1-11.84,1.88,37.91,37.91,0,0,1-12.66-1.87,21.14,21.14,0,0,1-8.55-5.39,20.81,20.81,0,0,1-4.75-8.55,40.48,40.48,0,0,1-1.46-11.31v-50.8h14.41v49.92a31.35,31.35,0,0,0,.67,6.86,12.26,12.26,0,0,0,2.34,5.07,10.46,10.46,0,0,0,4.19,3.13,16.46,16.46,0,0,0,6.33,1.05,17.51,17.51,0,0,0,6-.91,9.36,9.36,0,0,0,4.1-2.93,13.52,13.52,0,0,0,2.46-5.19,31,31,0,0,0,.82-7.68V759.92h14.41Z" transform="translate(-774.29 -748.9)"/><path fill="#353030" d="M1305.33,836.5V759.92h46.11v12.19H1320v19h30V803h-30v21.27h31.46V836.5Z" transform="translate(-774.29 -748.9)"/><path fill="#f79413" d="M827.05,806.32a16.59,16.59,0,0,0-3.11-5.19,16.28,16.28,0,0,0-4.57-3.57,17.86,17.86,0,0,0-5.48-1.85,15.77,15.77,0,0,0,5-2.75,16.48,16.48,0,0,0,3.52-4,17.53,17.53,0,0,0,2.08-5,23.25,23.25,0,0,0,.67-5.6q0-9.26-6.53-13.83a23.24,23.24,0,0,0-7.94-3.37V748.9h-9V760c-.86,0-1.73-.06-2.64-.06h-6.39v-11h-9v11h-9.32V836.5h9.32v13.83h9V836.5h5c1.38,0,2.7,0,4-.12v14h9V835a27.26,27.26,0,0,0,9.67-4.43q7.85-5.89,7.85-17.61A18.58,18.58,0,0,0,827.05,806.32Zm-18.11-.88a9.22,9.22,0,0,1,3.72,7.79,11.29,11.29,0,0,1-.91,4.51,10.24,10.24,0,0,1-2.67,3.66,12.57,12.57,0,0,1-4.37,2.43,19,19,0,0,1-6.06.88H788.59V802.63h9Q805.23,802.63,808.95,805.45ZM803.21,772a11.14,11.14,0,0,1,4,1.9,7.17,7.17,0,0,1,2.26,3,10.49,10.49,0,0,1,.7,3.93,12.56,12.56,0,0,1-.67,4.16,8.69,8.69,0,0,1-2.23,3.43,10.77,10.77,0,0,1-4,2.34,18.16,18.16,0,0,1-5.95.85h-8.73V771.34h8.73A22.35,22.35,0,0,1,803.21,772Z" transform="translate(-774.29 -748.9)"/></svg>